<?xml version="1.0" standalone="no"?>
<svg fill="#000000" width="128" height="128" viewBox="0 0 1000 1000" version="1.1" xmlns="http://www.w3.org/2000/svg" xmlns:xlink="http://www.w3.org/1999/xlink" enable-background="new 0 0 1000 1000" xml:space="preserve">

<g fill="#2596be" style="">

<g transform="translate(0.000000,512.000000) scale(0.100000,-0.100000)" fill="#2596be" style="">

<path d="M6033.9,4923.5c-21.3-25.2-71.7-112.4-112.4-193.7c-236.3-488.2-618-838.8-951.2-875.6c-424.3-48.4-840.8,280.9-1075.2,846.6c-75.6,186-125.9,246-203.4,246c-25.2,0-310-131.7-633.5-292.5c-579.3-290.6-587-294.5-730.4-441.7c-364.2-368.1-606.4-858.2-1086.8-2206.6C874.9,985,100-1349.4,100-1426.9c0-71.7,32.9-89.1,928-437.8c414.6-162.7,476.6-178.2,542.4-143.4c19.4,9.7,186,339,379.7,755.5c189.9,404.9,346.8,734.2,350.6,730.4c1.9-2-31-139.5-73.6-304.2c-248-957-757.5-3068.7-765.2-3169.4c-9.7-106.5-5.8-122.1,34.9-160.8c191.8-178.2,610.2-224.7,964.8-106.5l158.9,52.3l158.9-156.9c277-273.2,463-356.5,798.2-358.4c313.8,0,596.7,98.8,877.6,304.2l122.1,91l120.1-110.4c240.2-222.8,525-300.3,850.5-232.5c180.2,38.8,335.1,120.1,453.3,236.3l98.8,98.8l133.7-89.1c310-209.2,726.5-249.9,1040.3-102.7c139.5,65.9,317.7,220.9,403,352.6l60.1,93l135.6-63.9c319.6-153,681.9-127.9,649,44.6c-5.8,29.1-32.9,114.3-62,187.9c-75.6,199.5-244.1,794.3-406.8,1433.6C7909.2-1917.1,7558.5-437,7560.5-406c0,7.7,182.1-348.7,404.9-792.3c420.4-835,451.4-887.3,546.3-858.2c25.2,7.8,333.2,127.9,683.9,265.4c402.9,158.9,652.9,267.3,676.1,292.5c27.1,32.9,32.9,62,25.2,129.8c-21.3,158.9-765.2,2404.2-1158.5,3492.9c-418.5,1154.6-621.9,1563.4-959,1929.5c-174.4,189.9-315.8,284.8-637.4,434c-149.2,67.8-434,205.4-631.6,302.2c-199.6,96.9-379.7,176.3-399.1,176.3C6090.1,4966.1,6055.2,4946.7,6033.9,4923.5z M3715,4431.4c91-207.3,259.6-451.4,401-579.2c133.7-120.1,373.9-246,532.8-279c158.9-32.9,422.3-27.1,567.6,13.6c350.7,96.9,656.7,375.8,935.7,852.4l93,158.9l60-27.1c96.9-40.7,571.5-259.6,633.5-292.5l54.2-29.1l-56.2-172.4C6777.8,3579,6710,2928.1,6764.3,2387.6c63.9-627.7,271.2-1687.4,612.2-3115.2c62-255.7,106.6-470.7,102.7-476.6c-19.4-17.4-656.7-124-976.4-162.7c-509.5-60-869.8-79.4-1536.3-79.4c-871.8,0-1330.9,36.8-2105.8,168.5c-222.8,36.8-410.7,71.7-414.6,75.5c-5.8,5.8,40.7,215.1,102.7,468.8c346.8,1418.1,554.1,2460.4,612.2,3074.5c46.5,472.7-34.9,1224.4-182.1,1702.9c-42.6,137.5-44.6,151.1-15.5,168.5c158.9,96.9,674.2,379.7,680,373.9C3647.2,4582.5,3680.1,4512.8,3715,4431.4z M7450.1,3956.8c366.1-346.8,585-788.5,1067.4-2158.1c125.9-352.6,1034.5-3041.5,1042.2-3078.4c2-9.7-209.2-108.5-470.8-218.9c-434-182.1-476.6-197.6-499.8-166.6c-11.6,17.4-277,530.8-587,1137.2C7690.3,80.3,7403.6,644,7362.9,723.5c-63.9,124-87.2,211.2-160.8,581.2c-118.2,588.9-166.6,957-180.2,1329c-17.4,484.3,34.9,920.2,160.8,1329C7244.7,4162.1,7235,4162.1,7450.1,3956.8z M2672.7,3916.1c106.6-360.3,160.8-794.3,162.7-1274.7c1.9-373.9-38.7-693.5-170.5-1398.7l-69.7-368.1L1992.7-407.9c-329.3-703.2-602.5-1284.4-606.4-1286.3c-11.6-15.5-943.5,356.4-953.1,379.7c-15.5,42.6,592.8,1863.7,1015.1,3043.5c395.2,1098.4,598.6,1563.4,846.6,1933.4c127.9,189.8,294.5,393.3,321.6,393.3C2626.2,4055.6,2651.4,3991.7,2672.7,3916.1z M2572-1492.8c935.7-176.3,1675.8-236.3,2719.9-218.9c848.5,13.6,1456.8,71.7,2010.9,189.8c100.7,21.3,184,36.8,186,32.9c3.9-3.9,21.3-79.4,38.7-170.5c112.4-538.6,385.5-1567.3,544.4-2032.2c36.8-112.3,67.8-205.3,67.8-209.2c0-13.6-145.3,19.4-211.2,46.5c-34.9,15.5-96.9,48.4-137.5,73.6c-79.4,50.4-191.8,77.5-224.7,54.2c-11.6-9.7-50.4-71.7-87.2-141.4c-271.2-519.2-836.9-585.1-1307.7-151.1c-108.5,100.7-187.9,108.5-248,25.2c-153-203.4-337.1-321.6-567.6-360.3c-249.9-42.6-476.6,52.3-619.9,261.5c-69.7,102.7-104.6,133.7-174.4,155c-34.9,11.6-65.9-9.7-168.5-112.4c-143.4-143.3-331.3-259.6-515.3-323.5c-96.9-32.9-172.4-44.6-329.3-44.6c-182.1-1.9-215,3.9-315.8,50.4c-118.2,56.2-335.2,248-401,356.4c-38.7,60.1-172.4,162.7-215,162.7c-11.6,0-100.7-31-197.6-69.7c-222.8-89.1-449.5-110.4-621.9-56.2c-60.1,19.4-108.5,36.8-108.5,40.7c0,7.8,567.6,2287.9,602.5,2415.8c9.7,38.7,21.3,71.7,25.2,71.7C2320.1-1446.3,2434.4-1467.6,2572-1492.8z" fill="#2596be" style=""/>

</g>

</g>
</svg>