<?xml version="1.0" encoding="UTF-8"?>
<!DOCTYPE svg PUBLIC "-//W3C//DTD SVG 1.1//EN" "http://www.w3.org/Graphics/SVG/1.1/DTD/svg11.dtd">
<svg xmlns="http://www.w3.org/2000/svg" version="1.1" width="512px" height="512px" style="shape-rendering:geometricPrecision; text-rendering:geometricPrecision; image-rendering:optimizeQuality; fill-rule:evenodd; clip-rule:evenodd" xmlns:xlink="http://www.w3.org/1999/xlink">
<g><path style="opacity:0.979" fill="#2595be" d="M 244.5,22.5 C 285.742,22.2065 319.908,37.5398 347,68.5C 374.766,102.063 390.433,140.73 394,184.5C 394.333,232.167 394.667,279.833 395,327.5C 427.333,362.5 459.667,397.5 492,432.5C 495.817,441.855 492.651,446.521 482.5,446.5C 431.165,444.59 379.831,443.09 328.5,442C 318.833,451 309.167,460 299.5,469C 263.765,475.984 227.932,482.484 192,488.5C 136.857,474.589 81.6902,460.756 26.5,447C 18.0633,445.294 15.5633,440.461 19,432.5C 59.198,393.967 99.698,355.801 140.5,318C 122.727,289.767 112.56,258.933 110,225.5C 105.209,170.24 118.875,120.24 151,75.5C 174.853,44.7901 206.019,27.1234 244.5,22.5 Z M 251.5,38.5 C 285.177,40.255 313.01,53.9217 335,79.5C 360.467,110.87 374.801,146.87 378,187.5C 379.752,212.233 377.418,236.567 371,260.5C 376.339,216.53 368.339,175.196 347,136.5C 332.527,113.359 313.027,95.8589 288.5,84C 252.178,71.1652 218.845,76.4985 188.5,100C 157.912,127 139.746,160.833 134,201.5C 132.906,211.644 132.073,221.811 131.5,232C 132.311,241.51 132.811,251.01 133,260.5C 117.906,202.578 125.573,147.911 156,96.5C 173.112,70.0523 196.612,51.8857 226.5,42C 234.931,40.4505 243.264,39.2839 251.5,38.5 Z M 241.5,93.5 C 263.578,91.5835 283.578,97.0835 301.5,110C 328.637,131.737 345.47,159.903 352,194.5C 360.42,237.642 354.42,278.642 334,317.5C 321.293,338.536 303.793,354.37 281.5,365C 253.263,374.905 226.93,371.238 202.5,354C 185.258,340.417 172.092,323.583 163,303.5C 141.614,250.088 143.948,197.755 170,146.5C 182.707,125.464 200.207,109.63 222.5,99C 228.835,96.7106 235.169,94.8773 241.5,93.5 Z M 377.5,290.5 C 378.663,315.663 378.83,340.997 378,366.5C 369.352,374.806 361.852,383.973 355.5,394C 357.24,401.242 361.574,403.575 368.5,401C 376.667,392.167 384.833,383.333 393,374.5C 394.267,366.938 394.934,359.271 395,351.5C 418.833,377.333 442.667,403.167 466.5,429C 418.853,427.62 371.186,426.62 323.5,426C 311.873,435.292 300.539,444.959 289.5,455C 257.529,460.694 225.529,466.194 193.5,471.5C 142.97,459.617 92.6366,446.951 42.5,433.5C 76.5189,399.981 111.019,366.981 146,334.5C 146.333,349.833 146.667,365.167 147,380.5C 158.07,396.239 169.903,411.406 182.5,426C 191.164,427 194.664,423.166 193,414.5C 182.95,402.118 173.283,389.451 164,376.5C 163.333,367.167 163.333,357.833 164,348.5C 198.515,382.671 239.348,393.838 286.5,382C 284.732,384.884 282.732,387.551 280.5,390C 262.527,393.795 244.527,397.461 226.5,401C 218.994,404.379 217.66,409.379 222.5,416C 224.278,416.704 226.112,417.204 228,417.5C 248.473,413.205 268.973,409.039 289.5,405C 291.624,403.878 293.457,402.378 295,400.5C 299.745,390.676 304.745,381.01 310,371.5C 341.773,352.227 364.273,325.227 377.5,290.5 Z"/></g>
</svg>
